<svg xmlns="http://www.w3.org/2000/svg" width="603" height="96" viewBox="0 0 603 96" role="img" aria-label="PQPMan v1.1.0">
  <title>PQPMan v1.1.0</title>
  <defs>
    <linearGradient id="g" x1="0" y1="0" x2="1" y2="1">
      <stop offset="0%" stop-color="#00FFCC"/>
      <stop offset="55%" stop-color="#1FB6FF"/>
      <stop offset="100%" stop-color="#8A2BE2"/>
    </linearGradient>
    <filter id="glow" x="-30%" y="-30%" width="160%" height="160%">
      <feGaussianBlur stdDeviation="3" result="b"/>
      <feMerge><feMergeNode in="b"/><feMergeNode in="SourceGraphic"/></feMerge>
    </filter>
  </defs>
  <g transform="translate(36,8)" fill="url(#g)" filter="url(#glow)">
    <path d="M56 0 L56 719 L656 719 Q689 719 716 702 Q744 686 760 659 Q776 632 776 599 L776 388 Q776 355 760 328 Q744 301 716 284 Q689 268 656 268 L137 268 L137 0 L56 0 M176 350 L656 350 Q672 350 683 361 Q695 372 695 388 L695 599 Q695 615 683 626 Q672 638 656 638 L176 638 Q160 638 148 626 Q137 615 137 599 L137 388 Q137 372 148 361 Q160 350 176 350 Z" transform="translate(0.00,70.0) scale(0.05104,-0.05104)"/>
    <path d="M646 0 L646 36 L774 123 L774 81 L868 81 L868 0 L646 0 M174 0 Q141 0 113 16 Q86 32 70 59 Q54 87 54 120 L54 600 Q54 633 70 660 Q86 688 113 704 Q141 720 174 720 L654 720 Q687 720 714 704 Q742 688 758 660 Q774 633 774 600 L774 120 Q774 87 758 59 Q742 32 714 16 Q687 0 654 0 L174 0 M174 81 L654 81 Q670 81 681 92 Q693 104 693 120 L693 600 Q693 616 681 627 Q670 639 654 639 L174 639 Q158 639 146 627 Q135 616 135 600 L135 120 Q135 104 146 92 Q158 81 174 81 Z" transform="translate(48.37,70.0) scale(0.05104,-0.05104)"/>
    <path d="M56 0 L56 719 L656 719 Q689 719 716 702 Q744 686 760 659 Q776 632 776 599 L776 388 Q776 355 760 328 Q744 301 716 284 Q689 268 656 268 L137 268 L137 0 L56 0 M176 350 L656 350 Q672 350 683 361 Q695 372 695 388 L695 599 Q695 615 683 626 Q672 638 656 638 L176 638 Q160 638 148 626 Q137 615 137 599 L137 388 Q137 372 148 361 Q160 350 176 350 Z" transform="translate(101.49,70.0) scale(0.05104,-0.05104)"/>
    <path d="M56 0 L56 720 L167 720 L466 364 L765 720 L876 720 L876 0 L795 0 L795 628 L466 237 L137 628 L137 0 L56 0 Z" transform="translate(149.86,70.0) scale(0.05104,-0.05104)"/>
    <path d="M58 0 L58 600 Q58 633 74 660 Q90 688 117 704 Q145 720 178 720 L658 720 Q691 720 718 704 Q746 688 762 660 Q778 633 778 600 L778 0 L697 0 L697 263 L139 263 L139 0 L58 0 L58 0 M139 344 L697 344 L697 600 Q697 616 685 627 Q674 639 658 639 L178 639 Q162 639 150 627 Q139 616 139 600 L139 344 L139 344 Z" transform="translate(205.22,70.0) scale(0.05104,-0.05104)"/>
    <path d="M56 0 L56 720 L167 720 L695 92 L695 720 L776 720 L776 0 L665 0 L137 628 L137 0 L56 0 Z" transform="translate(255.89,70.0) scale(0.05104,-0.05104)"/>
    <path d="M452 0 L452 0 L35 720 L130 720 L499 79 L867 720 L962 720 L546 0 L452 0 Z" transform="translate(335.15,70.0) scale(0.05104,-0.05104)"/>
    <path d="M219 0 L219 0 L219 628 L108 495 L1 495 L190 720 L302 720 L302 0 L219 0 Z" transform="translate(394.34,70.0) scale(0.05104,-0.05104)"/>
    <path d="M54 0 L54 0 L54 82 L136 82 L136 0 L54 0 Z" transform="translate(422.29,70.0) scale(0.05104,-0.05104)"/>
    <path d="M219 0 L219 0 L219 628 L108 495 L1 495 L190 720 L302 720 L302 0 L219 0 Z" transform="translate(441.21,70.0) scale(0.05104,-0.05104)"/>
    <path d="M54 0 L54 0 L54 82 L136 82 L136 0 L54 0 Z" transform="translate(469.17,70.0) scale(0.05104,-0.05104)"/>
    <path d="M178 0 Q144 0 116 16 Q89 33 73 60 Q57 88 57 121 L57 598 Q57 632 73 659 Q89 687 116 703 Q144 720 178 720 L663 720 Q696 720 723 703 Q751 687 767 659 Q784 632 784 598 L784 121 Q784 88 767 60 Q751 33 723 16 Q696 0 663 0 L178 0 L178 0 M149 82 L149 82 L663 82 Q679 82 690 93 Q702 105 702 121 L702 538 L149 82 M139 181 L139 181 L691 637 L178 637 Q162 637 150 625 Q139 614 139 598 L139 181 Z" transform="translate(488.09,70.0) scale(0.05104,-0.05104)"/>
  </g>
</svg>
